<?xml version="1.0" standalone="no"?>
<!DOCTYPE svg PUBLIC "-//W3C//DTD SVG 20010904//EN"
 "http://www.w3.org/TR/2001/REC-SVG-20010904/DTD/svg10.dtd">
<svg version="1.0" xmlns="http://www.w3.org/2000/svg"
 width="792.000000pt" height="792.000000pt" viewBox="0 0 792.000000 792.000000"
 preserveAspectRatio="xMidYMid meet">
<metadata>
Created by potrace 1.14, written by Peter Selinger 2001-2017
</metadata>
<g transform="translate(0.000000,792.000000) scale(0.100000,-0.100000)"
fill="#000000" stroke="none">
<path d="M3756 7883 c-1 -1 -36 -5 -77 -8 -154 -10 -228 -18 -294 -31 -11 -2
-40 -7 -65 -10 -25 -3 -54 -8 -65 -11 -11 -2 -36 -6 -55 -9 -19 -3 -42 -8 -50
-11 -8 -3 -22 -7 -30 -8 -27 -3 -125 -26 -150 -36 -14 -4 -40 -11 -59 -14 -19
-3 -39 -9 -45 -13 -6 -3 -19 -8 -28 -9 -23 -4 -166 -52 -205 -69 -17 -8 -36
-14 -41 -14 -27 0 -503 -219 -522 -240 -3 -3 -23 -14 -45 -25 -22 -11 -42 -22
-45 -25 -3 -3 -27 -19 -55 -35 -72 -41 -229 -147 -233 -157 -2 -4 -10 -8 -17
-8 -7 0 -15 -3 -17 -7 -1 -5 -25 -25 -53 -45 -94 -71 -100 -76 -188 -151 -76
-64 -94 -81 -192 -177 -116 -114 -170 -170 -245 -260 -30 -35 -59 -70 -65 -76
-25 -29 -59 -75 -109 -144 -30 -41 -61 -82 -68 -90 -7 -9 -19 -28 -27 -43 -8
-15 -18 -27 -23 -27 -4 0 -8 -5 -8 -11 0 -6 -13 -30 -30 -54 -16 -24 -30 -48
-30 -54 0 -6 -4 -11 -10 -11 -5 0 -10 -4 -10 -10 0 -5 -16 -34 -35 -64 -19
-30 -35 -59 -35 -64 0 -5 -8 -20 -19 -33 -10 -13 -22 -35 -26 -49 -4 -14 -11
-27 -14 -30 -6 -5 -81 -156 -81 -164 0 -3 -15 -38 -34 -78 -29 -62 -126 -319
-126 -332 0 -3 -5 -17 -11 -33 -7 -15 -13 -35 -14 -43 -1 -8 -12 -49 -24 -90
-12 -41 -24 -84 -26 -95 -3 -11 -9 -41 -15 -66 -6 -26 -13 -55 -15 -65 -2 -11
-4 -19 -5 -19 -1 0 -5 -20 -14 -80 -3 -16 -5 -30 -6 -30 -2 0 -7 -25 -13 -75
-4 -25 -8 -55 -11 -67 -3 -12 -7 -53 -11 -90 -3 -37 -8 -86 -11 -107 -7 -57
-15 -239 -14 -326 0 -41 0 -84 0 -95 -2 -34 -2 -36 5 -156 3 -64 7 -126 10
-137 2 -12 7 -52 10 -89 4 -37 8 -79 11 -93 2 -14 7 -41 10 -60 8 -50 11 -70
19 -115 4 -22 9 -48 11 -58 2 -10 5 -26 8 -35 3 -9 7 -29 10 -44 24 -141 175
-606 226 -696 5 -9 24 -48 41 -87 52 -118 119 -246 189 -361 22 -36 40 -70 40
-75 0 -5 4 -9 9 -9 5 0 13 -10 17 -22 3 -12 12 -28 18 -35 26 -29 36 -42 36
-48 0 -5 159 -225 170 -235 3 -3 25 -30 50 -60 24 -30 54 -66 67 -80 12 -14
37 -41 54 -60 157 -176 375 -375 554 -506 41 -30 69 -52 89 -69 6 -5 23 -16
38 -24 16 -8 28 -18 28 -23 0 -4 5 -8 11 -8 6 0 36 -17 67 -38 62 -42 106 -70
137 -88 216 -122 435 -226 620 -294 33 -12 74 -27 90 -33 17 -7 32 -12 35 -12
3 -1 46 -13 95 -28 149 -45 189 -57 215 -61 14 -3 25 -5 25 -6 0 -1 7 -3 15
-5 8 -1 40 -8 70 -14 111 -23 218 -42 255 -47 87 -9 124 -13 160 -18 185 -25
600 -26 810 -1 106 13 163 20 225 30 14 3 42 7 64 10 21 4 48 9 60 11 11 3 30
7 41 9 11 3 31 7 45 10 14 4 36 8 50 11 14 3 55 14 93 24 37 10 68 19 70 19 2
0 10 2 77 22 25 8 47 14 50 15 3 0 12 3 20 7 8 3 44 15 80 27 151 50 303 114
474 201 143 71 201 103 204 111 2 5 7 8 12 8 9 0 101 55 147 88 17 12 36 22
42 22 5 0 14 6 18 14 4 7 19 19 33 26 22 12 207 146 220 160 3 3 28 23 55 45
125 99 277 244 402 382 43 48 85 93 93 102 22 24 182 228 223 286 96 135 211
330 304 513 57 112 100 208 97 213 -3 5 0 9 5 9 6 0 11 7 11 15 0 9 7 27 16
40 9 14 13 25 10 25 -4 0 0 13 9 29 16 32 90 245 105 301 5 19 16 62 25 95 10
33 18 67 20 76 2 8 10 44 19 80 8 35 20 89 26 119 5 30 12 66 15 80 3 14 7 43
10 65 2 22 7 54 9 70 13 81 26 219 30 309 1 23 5 47 9 54 5 6 4 12 0 12 -10 0
-8 63 2 79 3 6 2 11 -4 11 -7 0 -8 9 -3 23 5 12 7 31 6 42 -4 24 -5 55 -3 75
3 43 -15 298 -27 385 -4 22 -7 54 -9 70 -4 37 -14 101 -21 135 -3 13 -7 38
-10 55 -2 16 -6 41 -10 55 -3 14 -7 34 -9 45 -2 11 -13 60 -25 109 -12 49 -23
94 -25 100 -1 6 -5 18 -8 26 -5 14 -38 123 -43 145 -2 11 -51 149 -61 175 -4
8 -7 17 -8 20 -6 18 -20 51 -36 87 -10 24 -19 45 -19 48 0 7 -60 135 -104 225
-30 59 -50 96 -119 220 -11 19 -24 38 -31 42 -6 4 -7 8 -2 8 4 0 -3 15 -18 34
-14 19 -26 37 -26 41 0 8 -43 69 -52 73 -5 2 -8 10 -8 18 0 8 -4 14 -10 14 -5
0 -10 4 -10 10 0 11 -130 189 -190 260 -104 122 -127 149 -174 199 -80 85
-290 286 -319 306 -8 6 -43 34 -78 63 -35 29 -75 62 -89 72 -86 68 -295 210
-309 210 -6 0 -11 5 -11 10 0 6 -6 10 -13 10 -7 0 -18 5 -25 12 -61 61 -581
301 -797 368 -38 12 -77 24 -85 27 -20 8 -14 6 -170 47 -75 20 -154 38 -175
41 -22 4 -58 10 -80 15 -57 13 -164 29 -295 45 -106 14 -614 28 -624 18z"/>
</g>
</svg>
